<?xml version="1.0" encoding="UTF-8"?>
<svg xmlns="http://www.w3.org/2000/svg" xmlns:xlink="http://www.w3.org/1999/xlink" width="30px" height="30px" viewBox="0 0 30 30" version="1.1">
<g id="surface1">
<path style=" stroke:none;fill-rule:evenodd;fill:rgb(0%,0%,0%);fill-opacity:1;" d="M 15 0 C 23.285156 0 30 6.886719 30 15.378906 C 30 22.171875 25.707031 27.9375 19.75 29.972656 C 18.988281 30.121094 18.71875 29.644531 18.71875 29.234375 C 18.71875 28.726562 18.738281 27.070312 18.738281 25.011719 C 18.738281 23.578125 18.257812 22.640625 17.71875 22.164062 C 21.058594 21.785156 24.570312 20.484375 24.570312 14.578125 C 24.570312 12.898438 23.988281 11.527344 23.023438 10.449219 C 23.179688 10.058594 23.695312 8.496094 22.878906 6.378906 C 22.878906 6.378906 21.621094 5.964844 18.757812 7.953125 C 17.558594 7.613281 16.273438 7.441406 15 7.4375 C 13.726562 7.441406 12.441406 7.613281 11.246094 7.953125 C 8.378906 5.964844 7.117188 6.378906 7.117188 6.378906 C 6.304688 8.496094 6.820312 10.058594 6.972656 10.449219 C 6.015625 11.527344 5.429688 12.898438 5.429688 14.578125 C 5.429688 20.46875 8.929688 21.789062 12.261719 22.175781 C 11.832031 22.5625 11.445312 23.238281 11.308594 24.234375 C 10.453125 24.628906 8.28125 25.304688 6.945312 22.957031 C 6.945312 22.957031 6.152344 21.476562 4.644531 21.371094 C 4.644531 21.371094 3.183594 21.351562 4.542969 22.304688 C 4.542969 22.304688 5.527344 22.777344 6.207031 24.554688 C 6.207031 24.554688 7.089844 27.300781 11.261719 26.371094 C 11.269531 27.65625 11.28125 28.867188 11.28125 29.234375 C 11.28125 29.640625 11.007812 30.117188 10.257812 29.972656 C 4.296875 27.941406 0 22.175781 0 15.378906 C 0 6.886719 6.71875 0 15 0 "/>
</g>
</svg>
