<?xml version="1.0" encoding="UTF-8"?>
<svg xmlns="http://www.w3.org/2000/svg" xmlns:xlink="http://www.w3.org/1999/xlink" width="30px" height="30px" viewBox="0 0 30 30" version="1.1">
<g id="surface1">
<path style=" stroke:none;fill-rule:nonzero;fill:rgb(0%,0%,0%);fill-opacity:1;" d="M 27.65625 0 L 2.34375 0 C 1.046875 0 0 1.046875 0 2.34375 L 0 27.65625 C 0 28.953125 1.046875 30 2.34375 30 L 27.65625 30 C 28.953125 30 30 28.953125 30 27.65625 L 30 2.34375 C 30 1.046875 28.953125 0 27.65625 0 Z M 10.804688 21.273438 L 7.882812 21.273438 L 7.882812 11.917969 L 10.804688 11.917969 Z M 9.265625 10.746094 L 9.242188 10.746094 C 8.179688 10.746094 7.492188 10.03125 7.492188 9.125 C 7.492188 8.195312 8.203125 7.5 9.28125 7.5 C 10.359375 7.5 11.023438 8.195312 11.046875 9.125 C 11.050781 10.023438 10.367188 10.746094 9.265625 10.746094 Z M 22.5 21.273438 L 19.183594 21.273438 L 19.183594 16.4375 C 19.183594 15.171875 18.667969 14.304688 17.523438 14.304688 C 16.652344 14.304688 16.164062 14.890625 15.945312 15.453125 C 15.859375 15.648438 15.875 15.933594 15.875 16.21875 L 15.875 21.277344 L 12.585938 21.277344 C 12.585938 21.277344 12.625 12.699219 12.585938 11.917969 L 15.875 11.917969 L 15.875 13.390625 C 16.066406 12.746094 17.117188 11.832031 18.789062 11.832031 C 20.871094 11.832031 22.5 13.179688 22.5 16.074219 Z M 22.5 21.273438 "/>
</g>
</svg>
