<?xml version="1.0" standalone="no"?>
<!DOCTYPE svg PUBLIC "-//W3C//DTD SVG 20010904//EN"
 "http://www.w3.org/TR/2001/REC-SVG-20010904/DTD/svg10.dtd">
<svg version="1.0" xmlns="http://www.w3.org/2000/svg"
 width="1500.000000pt" height="284.000000pt" viewBox="0 0 1500.000000 284.000000"
 preserveAspectRatio="xMidYMid meet">

<g transform="translate(0.000000,284.000000) scale(0.100000,-0.100000)"
fill="#000000" stroke="none">
<path d="M12170 1420 l0 -1410 380 0 380 0 0 1410 0 1410 -380 0 -380 0 0
-1410z"/>
<path d="M7100 1435 l0 -1005 275 0 275 0 0 158 0 157 96 95 c88 88 96 94 109
77 7 -10 78 -124 157 -253 l143 -234 308 0 309 0 -23 38 c-13 20 -137 217
-277 436 l-253 399 24 26 c13 14 122 134 242 266 120 132 230 252 244 268 l25
27 -316 0 -316 0 -234 -279 -233 -279 -3 554 -2 554 -275 0 -275 0 0 -1005z"/>
<path d="M20 1379 l0 -950 693 4 c762 4 730 1 867 68 87 43 181 137 220 221
42 90 57 196 42 305 -25 188 -120 306 -291 364 -33 12 -61 24 -61 28 0 3 30
19 66 35 122 53 207 157 235 287 6 28 9 95 7 148 -3 82 -8 106 -35 164 -41 87
-116 166 -201 210 -130 68 -115 67 -866 67 l-676 0 0 -951z m1101 518 c51 -33
71 -80 67 -152 -3 -44 -10 -70 -27 -94 -40 -56 -65 -61 -316 -61 l-225 0 0
165 0 165 234 0 c226 0 234 -1 267 -23z m37 -710 c56 -31 73 -70 70 -159 -3
-65 -7 -80 -28 -103 -50 -53 -60 -55 -330 -55 l-250 0 0 163 c0 90 3 167 7
171 4 4 118 6 253 4 213 -3 249 -5 278 -21z"/>
<path d="M10949 2288 c-6 -24 -33 -122 -59 -218 l-47 -175 -112 -3 -111 -3 0
-184 0 -185 99 0 100 0 3 -422 c4 -476 4 -477 79 -562 44 -50 112 -87 209
-113 115 -31 380 -22 533 18 l37 10 0 159 0 160 -107 0 c-91 0 -113 3 -141 20
-62 38 -66 59 -70 413 l-4 317 161 0 161 0 0 185 0 184 -157 3 -158 3 -3 218
-2 217 -200 0 -199 0 -12 -42z"/>
<path d="M4780 1919 c-123 -21 -228 -94 -288 -199 l-30 -52 -10 64 c-6 35 -14
84 -18 111 l-6 47 -224 0 -224 0 0 -730 0 -730 273 2 272 3 5 395 c5 374 6
397 26 440 60 130 148 170 371 170 l103 0 0 228 0 229 -37 11 c-58 17 -152 22
-213 11z"/>
<path d="M2705 1913 c-80 -11 -198 -48 -275 -86 -117 -57 -232 -170 -283 -277
-61 -130 -71 -183 -72 -385 0 -199 10 -254 66 -375 60 -128 152 -221 291 -291
253 -128 726 -129 984 -3 168 83 266 220 289 407 l7 57 -266 0 -266 0 0 -22
c-1 -34 -34 -100 -66 -130 -44 -41 -104 -58 -204 -58 -144 0 -212 35 -260 135
-18 36 -33 84 -36 123 l-7 62 552 0 551 0 0 73 c0 227 -59 423 -165 543 -93
108 -251 188 -432 219 -80 14 -330 19 -408 8z m330 -363 c57 -27 99 -82 115
-150 20 -84 35 -80 -264 -80 -146 0 -267 3 -269 8 -9 15 21 105 49 145 51 72
142 109 255 103 43 -2 84 -11 114 -26z"/>
<path d="M5788 1905 c-300 -57 -500 -230 -569 -492 -26 -101 -36 -292 -20
-403 56 -383 314 -583 781 -607 389 -19 687 101 795 321 34 69 55 148 55 207
l0 29 -264 0 -263 0 -6 -40 c-7 -57 -42 -106 -95 -138 -44 -25 -54 -27 -167
-27 -104 0 -125 3 -161 22 -81 43 -124 117 -139 241 l-7 52 553 0 552 0 -6
138 c-4 87 -13 165 -26 213 -63 244 -231 404 -491 470 -112 28 -405 36 -522
14z m368 -353 c71 -37 115 -104 118 -181 l1 -46 -267 -3 -268 -2 0 23 c0 62
53 155 108 189 83 51 229 61 308 20z"/>
<path d="M9393 1906 c-411 -78 -628 -371 -599 -807 15 -213 72 -356 191 -474
143 -143 318 -208 595 -222 213 -11 420 25 567 97 170 84 283 250 283 417 l0
43 -260 0 -260 0 -5 -27 c-11 -52 -50 -118 -84 -140 -52 -35 -107 -46 -211
-41 -101 4 -153 23 -197 70 -35 37 -65 116 -71 185 l-5 63 547 0 546 0 0 113
c0 235 -59 398 -189 527 -92 91 -180 140 -319 177 -83 22 -123 26 -277 29
-123 2 -203 -1 -252 -10z m362 -354 c77 -39 125 -113 125 -192 l0 -40 -265 0
c-224 0 -267 2 -271 15 -18 45 62 177 127 211 76 39 215 42 284 6z"/>
</g>
</svg>
