<svg xmlns="http://www.w3.org/2000/svg" version="1.1" xmlns:xlink="http://www.w3.org/1999/xlink" xmlns:svgjs="http://svgjs.dev/svgjs" width="1500" height="1500" viewBox="0 0 1500 1500"><rect width="1500" height="1500" fill="#ffffff"></rect><g transform="matrix(0.6666666666666666,0,0,0.6666666666666666,249.39393939393938,654.8864448444082)"><svg viewBox="0 0 396 75" data-background-color="#ffffff" preserveAspectRatio="xMidYMid meet" height="284" width="1500" xmlns="http://www.w3.org/2000/svg" xmlns:xlink="http://www.w3.org/1999/xlink"><g id="tight-bounds" transform="matrix(1,0,0,1,0.2400000000000091,0.17702448945101423)"><svg viewBox="0 0 395.52 74.64595102109797" height="74.64595102109797" width="395.52"><g><svg viewBox="0 0 507.7067666521995 95.81880672684088" height="74.64595102109797" width="395.52"><g transform="matrix(1,0,0,1,0,13.242686023752974)"><svg viewBox="0 0 395.52 69.33343467933493" height="69.33343467933493" width="395.52"><g id="textblocktransform"><svg viewBox="0 0 395.52 69.33343467933493" height="69.33343467933493" width="395.52" id="textblock"><g><svg viewBox="0 0 395.52 69.33343467933493" height="69.33343467933493" width="395.52"><g transform="matrix(1,0,0,1,0,0)"><svg width="395.52" viewBox="3.7 -36.3 210.49 36.9" height="69.33343467933493" data-palette-color="#547754"><path d="M26.6-34.4Q29.2-34.4 31.38-33.33 33.55-32.25 34.83-30.3 36.1-28.35 36.1-25.95L36.1-25.95Q36.1-19.6 30.35-17.95L30.35-17.95 30.35-17.75Q36.9-16.25 36.9-9.15L36.9-9.15Q36.9-6.45 35.58-4.38 34.25-2.3 31.95-1.15 29.65 0 26.9 0L26.9 0 3.7 0 3.7-34.4 26.6-34.4ZM14.75-26.85L14.75-21 22.35-21Q23.45-21 24.18-21.78 24.9-22.55 24.9-23.7L24.9-23.7 24.9-24.2Q24.9-25.3 24.15-26.08 23.4-26.85 22.35-26.85L22.35-26.85 14.75-26.85ZM14.75-13.9L14.75-8 23.15-8Q24.25-8 24.98-8.78 25.7-9.55 25.7-10.7L25.7-10.7 25.7-11.2Q25.7-12.35 24.98-13.13 24.25-13.9 23.15-13.9L23.15-13.9 14.75-13.9ZM55.55-27Q62.8-27 66.62-23.6 70.45-20.2 70.45-13.2L70.45-13.2 70.45-11.5 50.65-11.5Q50.65-8.65 51.92-7.2 53.2-5.75 55.95-5.75L55.95-5.75Q58.45-5.75 59.62-6.8 60.8-7.85 60.8-9.6L60.8-9.6 70.45-9.6Q70.45-4.8 66.8-2.1 63.15 0.6 56.15 0.6L56.15 0.6Q48.8 0.6 44.75-2.83 40.7-6.25 40.7-13.2L40.7-13.2Q40.7-20 44.65-23.5 48.6-27 55.55-27L55.55-27ZM55.95-20.65Q51.25-20.65 50.7-16.2L50.7-16.2 60.4-16.2Q60.4-18.25 59.22-19.45 58.05-20.65 55.95-20.65L55.95-20.65ZM91.3-27.05Q92.45-27.05 93.34-26.78 94.25-26.5 94.25-26.45L94.25-26.45 94.25-18.1 91.05-18.1Q87.95-18.1 86.57-16.5 85.2-14.9 85.2-11.75L85.2-11.75 85.2 0 75.25 0 75.25-26.4 83.4-26.4 84.05-22.4Q84.95-24.7 86.9-25.88 88.84-27.05 91.3-27.05L91.3-27.05ZM111.89-27Q119.14-27 122.97-23.6 126.79-20.2 126.79-13.2L126.79-13.2 126.79-11.5 106.99-11.5Q106.99-8.65 108.27-7.2 109.54-5.75 112.29-5.75L112.29-5.75Q114.79-5.75 115.97-6.8 117.14-7.85 117.14-9.6L117.14-9.6 126.79-9.6Q126.79-4.8 123.14-2.1 119.49 0.6 112.49 0.6L112.49 0.6Q105.14 0.6 101.09-2.83 97.04-6.25 97.04-13.2L97.04-13.2Q97.04-20 100.99-23.5 104.94-27 111.89-27L111.89-27ZM112.29-20.65Q107.59-20.65 107.04-16.2L107.04-16.2 116.74-16.2Q116.74-18.25 115.57-19.45 114.39-20.65 112.29-20.65L112.29-20.65ZM141.54-16.3L149.99-26.4 161.59-26.4 151.84-15.75 161.84 0 150.54 0 144.99-9.05 141.54-5.7 141.54 0 131.59 0 131.59-36.3 141.54-36.3 141.54-16.3ZM176.89-27Q184.14-27 187.96-23.6 191.79-20.2 191.79-13.2L191.79-13.2 191.79-11.5 171.99-11.5Q171.99-8.65 173.26-7.2 174.54-5.75 177.29-5.75L177.29-5.75Q179.79-5.75 180.96-6.8 182.14-7.85 182.14-9.6L182.14-9.6 191.79-9.6Q191.79-4.8 188.14-2.1 184.49 0.6 177.49 0.6L177.49 0.6Q170.14 0.6 166.09-2.83 162.04-6.25 162.04-13.2L162.04-13.2Q162.04-20 165.99-23.5 169.94-27 176.89-27L176.89-27ZM177.29-20.65Q172.59-20.65 172.04-16.2L172.04-16.2 181.74-16.2Q181.74-18.25 180.56-19.45 179.39-20.65 177.29-20.65L177.29-20.65ZM208.59-26.4L214.19-26.4 214.19-19.65 208.59-19.65 208.59-9.6Q208.59-7.8 209.19-6.98 209.78-6.15 211.39-6.15L211.39-6.15 214.19-6.15 214.19-0.3Q212.99 0.1 211.09 0.35 209.19 0.6 207.78 0.6L207.78 0.6Q203.39 0.6 201.01-1 198.64-2.6 198.64-6.45L198.64-6.45 198.64-19.65 194.94-19.65 194.94-26.4 199.03-26.4 201.19-34.4 208.59-34.4 208.59-26.4Z" opacity="1" transform="matrix(1,0,0,1,0,0)" fill="#547754" class="wordmark-text-0" data-fill-palette-color="primary" id="text-0"></path></svg></g></svg></g></svg></g></svg></g><g transform="matrix(1,0,0,1,411.88795992535864,0)"><svg viewBox="0 0 95.81880672684088 95.81880672684088" height="95.81880672684088" width="95.81880672684088"><g data-palette-color="#398378"><rect width="26.190473838669842" height="95.81880672684088" fill="#398378" stroke="transparent" data-fill-palette-color="accent" x="0" fill-opacity="1"></rect><rect width="26.190473838669842" height="95.81880672684088" fill="#398378" stroke="transparent" data-fill-palette-color="accent" x="31.939602242280294" fill-opacity="0.75"></rect><rect width="26.190473838669842" height="95.81880672684088" fill="#398378" stroke="transparent" data-fill-palette-color="accent" x="63.87920448456059" fill-opacity="0.5"></rect></g></svg></g></svg></g><defs></defs></svg><rect width="395.52" height="74.64595102109797" fill="none" stroke="none" visibility="hidden"></rect></g></svg></g></svg>